{
  "accessors": [
    {
      "bufferView": 2,
      "componentType": 5126,
      "count": 3643,
      "max": [
        0.1390407830476761,
        0.26068657636642456,
        0.286531537771225
      ],
      "min": [
        -0.13904054462909698,
        0.0,
        -0.2865314781665802
      ],
      "type": "VEC3"
    },
    {
      "bufferView": 2,
      "byteOffset": 43716,
      "componentType": 5126,
      "count": 3643,
      "max": [
        1.0,
        1.0,
        1.0
      ],
      "min": [
        -1.0,
        -1.0,
        -1.0
      ],
      "type": "VEC3"
    },
    {
      "bufferView": 3,
      "componentType": 5126,
      "count": 3643,
      "max": [
        1.0,
        1.0,
        1.0,
        1.0
      ],
      "min": [
        -1.0,
        -1.0,
        -1.0,
        -1.0
      ],
      "type": "VEC4"
    },
    {
      "bufferView": 1,
      "componentType": 5126,
      "count": 3643,
      "max": [
        5.510181903839111,
        4.7322893142700195
      ],
      "min": [
        -4.421571254730225,
        -3.3927125930786133
      ],
      "type": "VEC2"
    },
    {
      "bufferView": 1,
      "byteOffset": 29144,
      "componentType": 5126,
      "count": 3643,
      "max": [
        5.510181903839111,
        4.7322893142700195
      ],
      "min": [
        -4.421571254730225,
        -3.3927125930786133
      ],
      "type": "VEC2"
    },
    {
      "bufferView": 1,
      "byteOffset": 58288,
      "componentType": 5126,
      "count": 3643,
      "max": [
        5.510181903839111,
        4.7322893142700195
      ],
      "min": [
        -4.421571254730225,
        -3.3927125930786133
      ],
      "type": "VEC2"
    },
    {
      "bufferView": 1,
      "byteOffset": 87432,
      "componentType": 5126,
      "count": 3643,
      "max": [
        5.510181903839111,
        4.7322893142700195
      ],
      "min": [
        -4.421571254730225,
        -3.3927125930786133
      ],
      "type": "VEC2"
    },
    {
      "bufferView": 0,
      "componentType": 5125,
      "count": 13524,
      "type": "SCALAR"
    },
    {
      "bufferView": 2,
      "byteOffset": 87432,
      "componentType": 5126,
      "count": 8,
      "max": [
        0.11095559597015381,
        0.2596051096916199,
        0.256459504365921
      ],
      "min": [
        -0.11095535755157471,
        0.2531990110874176,
        -0.25645944476127625
      ],
      "type": "VEC3"
    },
    {
      "bufferView": 2,
      "byteOffset": 87528,
      "componentType": 5126,
      "count": 8,
      "max": [
        0.0,
        1.0,
        -0.0
      ],
      "min": [
        0.0,
        -1.0,
        -0.0
      ],
      "type": "VEC3"
    },
    {
      "bufferView": 1,
      "byteOffset": 116576,
      "componentType": 5126,
      "count": 8,
      "max": [
        4.121337413787842,
        2.1595072746276855
      ],
      "min": [
        2.8698573112487793,
        -3.3927125930786133
      ],
      "type": "VEC2"
    },
    {
      "bufferView": 0,
      "byteOffset": 54096,
      "componentType": 5125,
      "count": 12,
      "type": "SCALAR"
    }
  ],
  "asset": {
    "extras": {
      "author": "Veebroush (https://sketchfab.com/veebroush)",
      "license": "SKETCHFAB Standard (https://sketchfab.com/licenses)",
      "source": "https://sketchfab.com/3d-models/antique-table-952710913174453397cf0eb721f7b8b1",
      "title": "Antique Table"
    },
    "generator": "Sketchfab-15.61.0",
    "version": "2.0"
  },
  "bufferViews": [
    {
      "buffer": 0,
      "byteLength": 54144,
      "name": "floatBufferViews",
      "target": 34963
    },
    {
      "buffer": 0,
      "byteLength": 116640,
      "byteOffset": 54144,
      "byteStride": 8,
      "name": "floatBufferViews",
      "target": 34962
    },
    {
      "buffer": 0,
      "byteLength": 87624,
      "byteOffset": 170784,
      "byteStride": 12,
      "name": "floatBufferViews",
      "target": 34962
    },
    {
      "buffer": 0,
      "byteLength": 58288,
      "byteOffset": 258408,
      "byteStride": 16,
      "name": "floatBufferViews",
      "target": 34962
    }
  ],
  "buffers": [
    {
      "byteLength": 316696,
      "uri": "scene.bin"
    }
  ],
  "extensionsRequired": [
    "KHR_materials_pbrSpecularGlossiness"
  ],
  "extensionsUsed": [
    "KHR_materials_pbrSpecularGlossiness"
  ],
  "images": [
    {
      "uri": "textures/Table_wood_diffuse.jpeg"
    },
    {
      "uri": "textures/Table_wood_specularGlossiness.png"
    },
    {
      "uri": "textures/Table_wood_normal.jpeg"
    }
  ],
  "materials": [
    {
      "doubleSided": true,
      "extensions": {
        "KHR_materials_pbrSpecularGlossiness": {
          "diffuseFactor": [
            1.0,
            1.0,
            1.0,
            1.0
          ],
          "diffuseTexture": {
            "index": 0
          },
          "glossinessFactor": 1.0,
          "specularFactor": [
            0.0,
            0.0,
            0.0
          ],
          "specularGlossinessTexture": {
            "index": 1
          }
        }
      },
      "name": "Table_wood",
      "normalTexture": {
        "index": 2
      }
    },
    {
      "alphaMode": "BLEND",
      "extensions": {
        "KHR_materials_pbrSpecularGlossiness": {
          "diffuseFactor": [
            1.0,
            1.0,
            1.0,
            0.028952469188477523
          ],
          "glossinessFactor": 1.0,
          "specularFactor": [
            0.0,
            0.0,
            0.0
          ]
        }
      },
      "name": "Glass"
    }
  ],
  "meshes": [
    {
      "name": "Object_0",
      "primitives": [
        {
          "attributes": {
            "NORMAL": 1,
            "POSITION": 0,
            "TANGENT": 2,
            "TEXCOORD_0": 3,
            "TEXCOORD_1": 4,
            "TEXCOORD_2": 5,
            "TEXCOORD_3": 6
          },
          "indices": 7,
          "material": 0,
          "mode": 4
        }
      ]
    },
    {
      "name": "Object_1",
      "primitives": [
        {
          "attributes": {
            "NORMAL": 9,
            "POSITION": 8,
            "TEXCOORD_0": 10
          },
          "indices": 11,
          "material": 1,
          "mode": 4
        }
      ]
    }
  ],
  "nodes": [
    {
      "children": [
        1
      ],
      "matrix": [
        1.1451222896575928,
        0.0,
        0.0,
        0.0,
        0.0,
        2.5426822639786745e-16,
        -1.1451222896575928,
        0.0,
        0.0,
        1.1451222896575928,
        2.5426822639786745e-16,
        0.0,
        0.0,
        0.0,
        0.0,
        1.0
      ],
      "name": "Sketchfab_model"
    },
    {
      "children": [
        2
      ],
      "name": "root"
    },
    {
      "children": [
        3
      ],
      "matrix": [
        1.0,
        0.0,
        0.0,
        0.0,
        0.0,
        2.220446049250313e-16,
        1.0,
        0.0,
        0.0,
        -1.0,
        2.220446049250313e-16,
        0.0,
        0.0,
        0.0,
        0.0,
        1.0
      ],
      "name": "GLTF_SceneRootNode"
    },
    {
      "children": [
        4,
        5
      ],
      "matrix": [
        2.281595468521118,
        0.0,
        0.0,
        0.0,
        0.0,
        2.281595468521118,
        0.0,
        0.0,
        0.0,
        0.0,
        2.281595468521118,
        0.0,
        0.0,
        0.0,
        0.0,
        1.0
      ],
      "name": "Small_table_2"
    },
    {
      "mesh": 0,
      "name": "Object_4"
    },
    {
      "mesh": 1,
      "name": "Object_5"
    }
  ],
  "samplers": [
    {
      "magFilter": 9729,
      "minFilter": 9987,
      "wrapS": 10497,
      "wrapT": 10497
    }
  ],
  "scene": 0,
  "scenes": [
    {
      "name": "Sketchfab_Scene",
      "nodes": [
        0
      ]
    }
  ],
  "textures": [
    {
      "sampler": 0,
      "source": 0
    },
    {
      "sampler": 0,
      "source": 1
    },
    {
      "sampler": 0,
      "source": 2
    }
  ]
}
